<svg id="svg" fill="#8000ff" stroke="url(#strokeGradient)" width="36" height="36" version="1.1" viewBox="144 144 512 512" xmlns="http://www.w3.org/2000/svg" stroke-width="30">

    <defs>
        <linearGradient id="strokeGradient" x1="0%" y1="0%" x2="100%" y2="0%">
            <stop offset="0%" style="stop-color:#5a00c7;stop-opacity:1" />
            <stop offset="25%" style="stop-color:#5a00c7;stop-opacity:1" />
            <stop offset="50%" style="stop-color:#2e3cff;stop-opacity:1" />
            <stop offset="75%" style="stop-color:#2e3cff;stop-opacity:1" />
            <stop offset="100%" style="stop-color:#525dff;stop-opacity:1" />
        </linearGradient>

        <filter id="shadow">
            <feOffset in="SourceAlpha" dx="15" dy="0" result="offsetShadow" />
            <feGaussianBlur in="offsetShadow" result="blurShadow" >
                <animate attributeName="stdDeviation" values="3;40;3" dur="3s" repeatCount="indefinite" />
            </feGaussianBlur>
            <feFlood flood-color="magenta" result="colorShadow" />
            <feComposite in="colorShadow" in2="blurShadow" operator="in" result="coloredShadow" />
            <feMerge>
                <feMergeNode in="coloredShadow" />
                <feMergeNode in="SourceGraphic" />
            </feMerge>
        </filter>
    </defs>

    <g id="IconSvg_tracerCarrier"  stroke-linecap="round" stroke-linejoin="round" stroke="#CCCCCC" stroke-width="0">
      <path xmlns="http://www.w3.org/2000/svg" d="m571.88 390.11-335.54-225.01c-2.2656-1.5195-5.1797-1.668-7.582-0.38281-2.4062 1.2812-3.9062 3.7812-3.9062 6.5078v457.55c0 2.7461 1.5234 5.2656 3.9531 6.5391 2.4336 1.2734 5.3711 1.0938 7.625-0.46875l335.55-232.55c2.0078-1.3867 3.1953-3.6797 3.1758-6.1211-0.015626-2.4375-1.2422-4.7109-3.2695-6.0703zm-332.27-98.441 162.34 106.66-162.34 109.79zm0 323.02v-88.746l179.78-121.58c2.043-1.3828 3.2578-3.6953 3.2422-6.1602-0.019531-2.4688-1.2695-4.7656-3.332-6.1172l-179.69-118.07v-88.949l315.06 211.27z" ></path>

      </g>
     <g id="IconSvg_iconCarrier">
      <path xmlns="http://www.w3.org/2000/svg" class="animated-shadow" d="m571.88 390.11-335.54-225.01c-2.2656-1.5195-5.1797-1.668-7.582-0.38281-2.4062 1.2812-3.9062 3.7812-3.9062 6.5078v457.55c0 2.7461 1.5234 5.2656 3.9531 6.5391 2.4336 1.2734 5.3711 1.0938 7.625-0.46875l335.55-232.55c2.0078-1.3867 3.1953-3.6797 3.1758-6.1211-0.015626-2.4375-1.2422-4.7109-3.2695-6.0703zm-332.27-98.441 162.34 106.66-162.34 109.79zm0 323.02v-88.746l179.78-121.58c2.043-1.3828 3.2578-3.6953 3.2422-6.1602-0.019531-2.4688-1.2695-4.7656-3.332-6.1172l-179.69-118.07v-88.949l315.06 211.27z" filter="url(#shadow)"></path>

      </g>
      </svg>