<svg width="76" height="36" viewBox="0 0 76 36" fill="none" xmlns="http://www.w3.org/2000/svg">
<path d="M9.25391 1.65625H10.6602V34H9.25391V1.65625ZM6.44141 1.65625H7.84766V34H6.44141V1.65625ZM3.62891 1.65625H5.03516V34H3.62891V1.65625ZM0.816406 1.65625H2.22266V34H0.816406V1.65625ZM40.2109 17.1055H41.6172V34H40.2109V17.1055ZM45.8359 17.1055H47.2422V34H45.8359V17.1055ZM43.0234 17.1055H44.4297V34H43.0234V17.1055ZM38.8047 17.1055V34C36.3307 34.9375 33.7656 35.4062 31.1094 35.4062C28.8047 35.4062 26.5977 34.9831 24.4883 34.1367C22.3789 33.2904 20.5234 32.1185 18.9219 30.6211C17.3203 29.1107 16.0378 27.2487 15.0742 25.0352C14.1237 22.8086 13.6484 20.4062 13.6484 17.8281C13.6484 15.4453 14.1107 13.1732 15.0352 11.0117C15.9727 8.83724 17.2227 6.96875 18.7852 5.40625C20.3607 3.83073 22.2292 2.58073 24.3906 1.65625C26.5651 0.71875 28.8438 0.25 31.2266 0.25C34.1953 0.25 36.9557 0.940104 39.5078 2.32031C42.0599 3.70052 44.1432 5.57552 45.7578 7.94531L44.5859 8.70703C43.1016 6.53255 41.181 4.8138 38.8242 3.55078C36.4805 2.28776 33.9479 1.65625 31.2266 1.65625C29.0391 1.65625 26.9427 2.08594 24.9375 2.94531C22.9453 3.79167 21.2266 4.9375 19.7812 6.38281C18.3359 7.82812 17.1836 9.55339 16.3242 11.5586C15.4779 13.5508 15.0547 15.6406 15.0547 17.8281C15.0547 20.1849 15.4909 22.3854 16.3633 24.4297C17.2487 26.474 18.4206 28.1862 19.8789 29.5664C21.3503 30.9466 23.056 32.0339 24.9961 32.8281C26.9362 33.6094 28.9544 34 31.0508 34C33.2513 34 35.3672 33.6549 37.3984 32.9648V31.6172C35.4583 32.2682 33.4206 32.5938 31.2852 32.5938C29.7357 32.5938 28.2253 32.3789 26.7539 31.9492C25.2956 31.5065 23.9414 30.862 22.6914 30.0156C21.4544 29.1562 20.3672 28.1406 19.4297 26.9688C18.5052 25.7839 17.776 24.4102 17.2422 22.8477C16.7214 21.2721 16.4609 19.599 16.4609 17.8281C16.4609 15.1589 17.1185 12.6914 18.4336 10.4258C19.7617 8.16016 21.5586 6.36979 23.8242 5.05469C26.0898 3.72656 28.5573 3.0625 31.2266 3.0625C33.7266 3.0625 36.0508 3.64844 38.1992 4.82031C40.3477 5.97917 42.099 7.55469 43.4531 9.54688L42.2812 10.3086C41.0573 8.51172 39.4688 7.09245 37.5156 6.05078C35.5755 4.99609 33.4792 4.46875 31.2266 4.46875C29.4167 4.46875 27.6849 4.82031 26.0312 5.52344C24.3776 6.22656 22.9518 7.17708 21.7539 8.375C20.569 9.5599 19.625 10.9792 18.9219 12.6328C18.2188 14.2865 17.8672 16.0182 17.8672 17.8281C17.8672 19.4557 18.1016 20.9857 18.5703 22.418C19.0521 23.8372 19.7096 25.0807 20.543 26.1484C21.3893 27.2031 22.3724 28.1146 23.4922 28.8828C24.612 29.638 25.8294 30.2109 27.1445 30.6016C28.4727 30.9922 29.8333 31.1875 31.2266 31.1875C33.388 31.1875 35.4453 30.8229 37.3984 30.0938V28.6875C35.4714 29.4297 33.4596 29.8008 31.3633 29.8008C29.7747 29.8008 28.2578 29.5339 26.8125 29C25.3672 28.4531 24.0781 27.6849 22.9453 26.6953C21.8255 25.7057 20.9336 24.4427 20.2695 22.9062C19.6055 21.3698 19.2734 19.6771 19.2734 17.8281C19.2734 15.6667 19.8073 13.668 20.875 11.832C21.9427 9.99609 23.3945 8.54427 25.2305 7.47656C27.0664 6.40885 29.0651 5.875 31.2266 5.875C33.2448 5.875 35.1198 6.34375 36.8516 7.28125C38.5964 8.21875 40.0156 9.49479 41.1094 11.1094L39.9375 11.8711C38.974 10.4648 37.724 9.35156 36.1875 8.53125C34.6641 7.69792 33.0104 7.28125 31.2266 7.28125C29.3125 7.28125 27.5482 7.75651 25.9336 8.70703C24.319 9.64453 23.0365 10.9206 22.0859 12.5352C21.1484 14.1497 20.6797 15.9141 20.6797 17.8281C20.6797 19.1562 20.8685 20.3932 21.2461 21.5391C21.6237 22.6849 22.1445 23.6745 22.8086 24.5078C23.4727 25.3411 24.2474 26.0508 25.1328 26.6367C26.0312 27.2227 26.9948 27.6654 28.0234 27.9648C29.0521 28.2513 30.1198 28.3945 31.2266 28.3945C33.4271 28.3945 35.4844 27.9583 37.3984 27.0859V25.7383C35.5495 26.5586 33.5508 26.9688 31.4023 26.9688C30.1654 26.9688 29 26.7799 27.9062 26.4023C26.8125 26.0247 25.8229 25.4714 24.9375 24.7422C24.0651 24.013 23.3685 23.056 22.8477 21.8711C22.3398 20.6732 22.0859 19.3255 22.0859 17.8281C22.0859 16.5911 22.3268 15.4128 22.8086 14.293C23.2904 13.1602 23.9414 12.1836 24.7617 11.3633C25.582 10.543 26.5521 9.89193 27.6719 9.41016C28.8047 8.92839 29.9896 8.6875 31.2266 8.6875C32.776 8.6875 34.2148 9.05208 35.543 9.78125C36.8711 10.4974 37.9518 11.474 38.7852 12.7109L37.6328 13.4727C36.9297 12.431 36.0117 11.6107 34.8789 11.0117C33.7591 10.3997 32.5417 10.0938 31.2266 10.0938C29.0911 10.0938 27.2682 10.849 25.7578 12.3594C24.2474 13.8698 23.4922 15.6927 23.4922 17.8281C23.4922 19.1432 23.707 20.3086 24.1367 21.3242C24.5664 22.3268 25.1523 23.1341 25.8945 23.7461C26.6497 24.3451 27.4831 24.8008 28.3945 25.1133C29.319 25.4128 30.3086 25.5625 31.3633 25.5625C33.5247 25.5625 35.5365 25.1133 37.3984 24.2148V17.1055H38.8047ZM63.7656 14.3125H61.4023C60.3997 14.3125 59.6771 14.0586 59.2344 13.5508C58.7917 13.0299 58.5703 12.3464 58.5703 11.5C58.5703 9.625 59.9701 8.6875 62.7695 8.6875C65.3997 8.6875 67.3789 9.07812 68.707 9.85938L67.5742 10.7188C66.6628 10.3021 65.0612 10.0938 62.7695 10.0938C61.6497 10.0938 60.8945 10.2174 60.5039 10.4648C60.1263 10.7122 59.9375 11.0573 59.9375 11.5C59.9375 11.9427 60.0417 12.2878 60.25 12.5352C60.4583 12.7826 60.8424 12.9062 61.4023 12.9062H63.8242C65.582 12.9062 67.1641 13.2057 68.5703 13.8047C69.9896 14.4036 71.1549 15.224 72.0664 16.2656C72.9779 17.2943 73.6745 18.4857 74.1562 19.8398C74.638 21.181 74.8789 22.6198 74.8789 24.1562C74.8789 25.4062 74.7031 26.5911 74.3516 27.7109C74 28.8307 73.4661 29.8594 72.75 30.7969C72.0469 31.7344 71.194 32.5482 70.1914 33.2383C69.2018 33.9154 68.0169 34.4427 66.6367 34.8203C65.2695 35.2109 63.7852 35.4062 62.1836 35.4062C59.6706 35.4062 57.3138 35.0221 55.1133 34.2539C52.9258 33.4987 51.1029 32.4375 49.6445 31.0703L50.7773 30.2305C52.1055 31.4284 53.7656 32.3594 55.7578 33.0234C57.763 33.6745 59.9049 34 62.1836 34C63.9674 34 65.5755 33.7461 67.0078 33.2383C68.4531 32.7174 69.638 32.0078 70.5625 31.1094C71.5 30.2109 72.2161 29.1693 72.7109 27.9844C73.2188 26.7995 73.4727 25.5234 73.4727 24.1562C73.4727 22.3464 73.1081 20.7122 72.3789 19.2539C71.6497 17.7826 70.5365 16.5911 69.0391 15.6797C67.5547 14.7682 65.7969 14.3125 63.7656 14.3125ZM61.4023 15.7188H63.6289C66.2721 15.7188 68.3359 16.526 69.8203 18.1406C71.3177 19.7552 72.0664 21.7604 72.0664 24.1562C72.0664 26.5911 71.2005 28.6094 69.4688 30.2109C67.737 31.7995 65.3086 32.5938 62.1836 32.5938C60.1003 32.5938 58.1536 32.3073 56.3438 31.7344C54.5339 31.1615 53.0299 30.3542 51.832 29.3125L52.9258 28.4336C53.9935 29.306 55.3346 29.9831 56.9492 30.4648C58.5768 30.9466 60.3216 31.1875 62.1836 31.1875C64.931 31.1875 67.0273 30.5299 68.4727 29.2148C69.931 27.8997 70.6602 26.2135 70.6602 24.1562C70.6602 22.125 70.0482 20.4453 68.8242 19.1172C67.6133 17.7891 65.875 17.125 63.6094 17.125H61.4023C59.5013 17.125 58.0755 16.6042 57.125 15.5625C56.1745 14.5208 55.6992 13.1667 55.6992 11.5C55.6992 9.83333 56.2852 8.47917 57.457 7.4375C58.6419 6.39583 60.4128 5.875 62.7695 5.875C64.4232 5.875 65.9596 6.07031 67.3789 6.46094C68.7982 6.83854 69.9701 7.38542 70.8945 8.10156L69.7812 8.96094C68.1536 7.84115 65.8164 7.28125 62.7695 7.28125C60.8034 7.28125 59.3646 7.67188 58.4531 8.45312C57.5547 9.22135 57.1055 10.237 57.1055 11.5C57.1055 12.776 57.4375 13.7982 58.1016 14.5664C58.7786 15.3346 59.8789 15.7188 61.4023 15.7188ZM61.4023 18.5312H63.5508C65.4518 18.5312 66.8776 19.0586 67.8281 20.1133C68.7786 21.168 69.2539 22.5156 69.2539 24.1562C69.2539 25.8229 68.6615 27.1771 67.4766 28.2188C66.3047 29.2604 64.5404 29.7812 62.1836 29.7812C60.5299 29.7812 58.987 29.5924 57.5547 29.2148C56.1354 28.8242 54.9635 28.2708 54.0391 27.5547L55.1523 26.6953C56.7799 27.8151 59.1237 28.375 62.1836 28.375C64.1497 28.375 65.582 27.9909 66.4805 27.2227C67.3919 26.4414 67.8477 25.4193 67.8477 24.1562C67.8477 22.8932 67.5091 21.8776 66.832 21.1094C66.1549 20.3281 65.0547 19.9375 63.5312 19.9375H61.4023C58.7331 19.9375 56.6432 19.1432 55.1328 17.5547C53.6354 15.9531 52.8867 13.9349 52.8867 11.5C52.8867 9.0651 53.7526 7.05339 55.4844 5.46484C57.2161 3.86328 59.6445 3.0625 62.7695 3.0625C64.8529 3.0625 66.793 3.34896 68.5898 3.92188C70.3997 4.49479 71.9036 5.30208 73.1016 6.34375L72.0078 7.22266C70.9401 6.35026 69.599 5.67318 67.9844 5.19141C66.3698 4.70964 64.6315 4.46875 62.7695 4.46875C60.0221 4.46875 57.9193 5.1263 56.4609 6.44141C55.0156 7.75651 54.293 9.44271 54.293 11.5C54.293 13.5443 54.9049 15.2305 56.1289 16.5586C57.3529 17.8737 59.1107 18.5312 61.4023 18.5312ZM61.4023 21.3438H63.5508C64.5534 21.3438 65.276 21.6042 65.7188 22.125C66.1615 22.6458 66.3828 23.3229 66.3828 24.1562C66.3828 26.0312 64.9831 26.9688 62.1836 26.9688C59.5404 26.9688 57.5547 26.5781 56.2266 25.7969L57.3594 24.9375C58.2708 25.3542 59.8789 25.5625 62.1836 25.5625C63.3034 25.5625 64.0521 25.4388 64.4297 25.1914C64.8203 24.944 65.0156 24.599 65.0156 24.1562C65.0156 23.7266 64.9049 23.388 64.6836 23.1406C64.4753 22.8802 64.0846 22.75 63.5117 22.75H61.4023C59.6055 22.75 57.9779 22.457 56.5195 21.8711C55.0742 21.2852 53.8828 20.4779 52.9453 19.4492C52.0208 18.4206 51.3112 17.2292 50.8164 15.875C50.3216 14.5208 50.0742 13.0625 50.0742 11.5C50.0742 10.25 50.25 9.0651 50.6016 7.94531C50.9531 6.82552 51.4805 5.79688 52.1836 4.85938C52.8997 3.92188 53.7526 3.11458 54.7422 2.4375C55.7448 1.7474 56.9297 1.21354 58.2969 0.835938C59.6771 0.445312 61.168 0.25 62.7695 0.25C65.2826 0.25 67.6328 0.634115 69.8203 1.40234C72.0078 2.15755 73.8307 3.21875 75.2891 4.58594L74.1562 5.42578C72.8281 4.22786 71.168 3.30339 69.1758 2.65234C67.1836 1.98828 65.0482 1.65625 62.7695 1.65625C60.9857 1.65625 59.3711 1.91667 57.9258 2.4375C56.4935 2.94531 55.3086 3.64844 54.3711 4.54688C53.4466 5.44531 52.7305 6.48698 52.2227 7.67188C51.7279 8.85677 51.4805 10.1328 51.4805 11.5C51.4805 13.3359 51.8516 14.9896 52.5938 16.4609C53.3359 17.9323 54.4688 19.1172 55.9922 20.0156C57.5156 20.901 59.319 21.3438 61.4023 21.3438Z" fill="#7000E0"/>
</svg>
