<svg width="25" height="25" viewBox="0 0 25 25" fill="none" xmlns="http://www.w3.org/2000/svg">
<path d="M17.44 16.0383L16.808 16.7045C16.808 16.7045 15.3039 18.2869 11.1997 13.9663C7.09559 9.64564 8.59974 8.06327 8.59974 8.06327L8.99696 7.64268C9.9789 6.61032 10.072 4.95148 9.21502 3.73971L7.46503 1.26469C6.40392 -0.235326 4.35533 -0.433857 3.14006 0.845565L0.959516 3.1397C0.358131 3.775 -0.0446442 4.5956 0.00396664 5.50737C0.128966 7.84121 1.12618 12.8604 6.68726 18.7163C12.5858 24.9252 18.1205 25.1722 20.383 24.9487C21.0997 24.8781 21.7219 24.4928 22.2233 23.9634L24.1955 21.8869C25.5288 20.4854 25.1538 18.081 23.4483 17.1001L20.7955 15.5722C19.6761 14.9295 18.315 15.1177 17.44 16.0383Z" fill="#6009BC"/>
</svg>
