<svg width="34" height="28" viewBox="0 0 34 28" fill="none" xmlns="http://www.w3.org/2000/svg">
<g filter="url(#filter0_d_4001_422)">
<path d="M5.15681 9.11688C5.21422 9.08913 5.27166 9.06276 5.32763 9.03779C6.30077 8.60211 7.28682 8.1942 8.27144 7.78627C8.32454 7.78627 8.41351 7.72661 8.46374 7.70718C8.53981 7.67527 8.6159 7.64475 8.69197 7.61283C8.83837 7.55178 8.98478 7.49212 9.12974 7.43107C9.42254 7.31036 9.71389 7.18964 10.0067 7.06893L11.7592 6.34327C12.9275 5.86042 14.0973 5.37619 15.2657 4.89334C16.434 4.41049 17.6037 3.92625 18.7721 3.4434C19.9404 2.96056 21.1102 2.47633 22.2785 1.99348C23.4468 1.51063 24.6166 1.02639 25.785 0.543543C26.0448 0.435318 26.3261 0.274364 26.6045 0.22719C26.8385 0.186952 27.0667 0.109256 27.3021 0.0662438C27.7484 -0.0156185 28.2408 -0.0489153 28.6685 0.130072C28.8163 0.192509 28.9527 0.27992 29.0661 0.389533C29.6086 0.908456 29.5325 1.76037 29.4177 2.49019C28.6182 7.57675 27.8188 12.6647 27.0179 17.7513C26.9088 18.4492 26.7595 19.2151 26.1897 19.6563C25.7074 20.0295 25.0214 20.0712 24.4257 19.913C23.8301 19.7534 23.3048 19.419 22.7895 19.0902C20.6523 17.7221 18.5137 16.3541 16.3766 14.986C15.8685 14.6613 15.303 14.2367 15.3087 13.6471C15.3116 13.2919 15.5312 12.9755 15.7551 12.6938C17.6124 10.3518 20.2921 8.74225 22.2857 6.50839C22.567 6.19342 22.7881 5.62455 22.402 5.44279C22.1723 5.33456 21.9082 5.48164 21.6986 5.62177C19.0634 7.39083 16.4297 9.16128 13.7945 10.9303C12.9347 11.5075 12.0334 12.1014 10.9971 12.2429C10.0699 12.3706 9.13693 12.1208 8.23986 11.8655C7.48777 11.6518 6.73708 11.4326 5.98929 11.2064C5.59171 11.0871 5.18121 10.9581 4.87406 10.6875C4.5669 10.417 4.39038 9.96186 4.57554 9.60111C4.6918 9.37495 4.91714 9.23204 5.15397 9.11549L5.15681 9.11688Z" fill="#6009BC"/>
</g>
<defs>
<filter id="filter0_d_4001_422" x="0.5" y="0" width="33" height="28" filterUnits="userSpaceOnUse" color-interpolation-filters="sRGB">
<feFlood flood-opacity="0" result="BackgroundImageFix"/>
<feColorMatrix in="SourceAlpha" type="matrix" values="0 0 0 0 0 0 0 0 0 0 0 0 0 0 0 0 0 0 127 0" result="hardAlpha"/>
<feOffset dy="4"/>
<feGaussianBlur stdDeviation="2"/>
<feComposite in2="hardAlpha" operator="out"/>
<feColorMatrix type="matrix" values="0 0 0 0 0 0 0 0 0 0 0 0 0 0 0 0 0 0 0.25 0"/>
<feBlend mode="normal" in2="BackgroundImageFix" result="effect1_dropShadow_4001_422"/>
<feBlend mode="normal" in="SourceGraphic" in2="effect1_dropShadow_4001_422" result="shape"/>
</filter>
</defs>
</svg>
