<svg width="26" height="26" viewBox="0 0 26 26" fill="none" xmlns="http://www.w3.org/2000/svg">
<path d="M16.7452 18.8028C11.8334 18.8028 7.83728 14.67 7.83594 9.59184C7.83728 8.30458 8.85111 7.25781 10.0935 7.25781C10.2212 7.25781 10.3476 7.26893 10.4686 7.29117C10.7349 7.33705 10.9877 7.43019 11.2203 7.57059C11.2539 7.59144 11.2767 7.62481 11.2821 7.66373L11.8011 11.0459C11.8079 11.0848 11.7958 11.1251 11.7702 11.1543C11.4838 11.4824 11.1181 11.7187 10.7107 11.8369L10.5144 11.8939L10.5883 12.0899C11.2579 13.8526 12.6213 15.2608 14.3276 15.9558L14.5172 16.0337L14.5723 15.8307C14.6866 15.4095 14.9152 15.0314 15.2325 14.7353C15.2554 14.7131 15.2863 14.7019 15.3172 14.7019C15.324 14.7019 15.3307 14.7019 15.3388 14.7033L18.6102 15.2399C18.6491 15.2469 18.6814 15.2691 18.7016 15.3039C18.836 15.5443 18.9261 15.8071 18.9719 16.0823C18.9934 16.2047 19.0028 16.3339 19.0028 16.4688C19.0028 17.7546 17.9903 18.8014 16.7452 18.8028Z" fill="#6009BC"/>
<path d="M25.4529 11.8851C25.1881 8.79071 23.8166 5.9201 21.5913 3.80294C19.3525 1.67327 16.4482 0.5 13.4108 0.5C6.74429 0.5 1.32021 6.10776 1.32021 13C1.32021 15.3132 1.93737 17.5666 3.10582 19.5294L0.5 25.493L8.8432 24.5742C10.294 25.1886 11.8295 25.5 13.4094 25.5C13.8249 25.5 14.2511 25.4778 14.6787 25.4319C15.0552 25.3902 15.4357 25.329 15.8095 25.2512C21.3923 24.0848 25.4677 18.9622 25.5 13.0667V13C25.5 12.6247 25.4839 12.2493 25.4516 11.8865L25.4529 11.8851ZM9.16456 21.9566L4.54858 22.4654L5.92679 19.3084L5.65114 18.9261C5.63097 18.8983 5.6108 18.8705 5.58795 18.8385C4.39126 17.1301 3.75929 15.1116 3.75929 13.0014C3.75929 7.49928 8.08888 3.02308 13.4108 3.02308C18.3965 3.02308 22.6226 7.04471 23.03 12.1784C23.0515 12.4537 23.0636 12.7303 23.0636 13.0028C23.0636 13.0806 23.0623 13.1571 23.0609 13.2391C22.9587 17.8418 19.8487 21.7508 15.4976 22.7462C15.1655 22.8226 14.8253 22.881 14.4864 22.9185C14.1342 22.9602 13.7725 22.9811 13.4135 22.9811C12.1348 22.9811 10.8924 22.7253 9.71853 22.2193C9.5881 22.1651 9.46036 22.1067 9.34069 22.0469L9.1659 21.9594L9.16456 21.9566Z" fill="#6009BC"/>
</svg>
